<?xml version="1.0" encoding="UTF-8" standalone="no"?>
<!-- Created with Inkscape (http://www.inkscape.org/) -->

<svg
   width="210mm"
   height="297mm"
   viewBox="0 0 210 297"
   version="1.1"
   id="svg1"
   xml:space="preserve"
   inkscape:version="1.4 (86a8ad7, 2024-10-11)"
   sodipodi:docname="UptownStudio_Todo_Assets.svg"
   xmlns:inkscape="http://www.inkscape.org/namespaces/inkscape"
   xmlns:sodipodi="http://sodipodi.sourceforge.net/DTD/sodipodi-0.dtd"
   xmlns="http://www.w3.org/2000/svg"
   xmlns:svg="http://www.w3.org/2000/svg"><sodipodi:namedview
     id="namedview1"
     pagecolor="#ffffff"
     bordercolor="#000000"
     borderopacity="0.25"
     inkscape:showpageshadow="2"
     inkscape:pageopacity="0.0"
     inkscape:pagecheckerboard="0"
     inkscape:deskcolor="#d1d1d1"
     inkscape:document-units="mm"
     inkscape:zoom="0.73851712"
     inkscape:cx="329.71477"
     inkscape:cy="802.9604"
     inkscape:window-width="1150"
     inkscape:window-height="1000"
     inkscape:window-x="-7"
     inkscape:window-y="0"
     inkscape:window-maximized="0"
     inkscape:current-layer="layer1" /><defs
     id="defs1">
	

		
		
		
		
		
		
		
		
	</defs><g
     inkscape:label="Layer 1"
     inkscape:groupmode="layer"
     id="layer1"><g
       id="Layer_1"
       transform="matrix(0.26458333,0,0,0.26458333,-0.79374867,14.28856)">
</g><path
       d="M 103.78087,60.363239 C 91.062196,61.041285 81.074883,71.518343 81.000001,84.261198 v 0.15047 c 0.0619,13.016845 10.454455,23.626762 23.460899,23.951562 h 1.18953 c 11.00032,-0.30176 20.39421,-8.03161 22.81343,-18.772218 0.27767,-1.238792 0.45692,-2.497615 0.53614,-3.764694 V 85.63764 82.00831 c -0.42939,-4.407861 -2.06578,-8.611789 -4.72911,-12.14921 -9.55027,8.902834 -17.73492,23.479771 -19.99591,27.60371 l -13.366728,-19.9123 12.477978,7.318492 c 5.92906,-7.608629 12.2375,-13.784055 18.0843,-18.124142 -3.9221,-3.662753 -8.95523,-5.908942 -14.29958,-6.381617 z"
       style="opacity:0.905192;fill:#005c87;fill-rule:evenodd;stroke-width:0.984308;stroke-linecap:round"
       id="path9" /><path
       d="m 104.74601,148.95903 c -2.64972,0.14126 -4.73041,2.32397 -4.74601,4.97871 v 0.0313 c 0.0129,2.71182 2.17801,4.9222 4.88769,4.98987 h 0.24782 c 2.29173,-0.0628 4.24879,-1.67325 4.75279,-3.91086 0.0578,-0.25807 0.0952,-0.52032 0.1117,-0.78431 v -0.0394 -0.7561 c -0.0894,-0.9183 -0.43037,-1.79412 -0.98523,-2.53107 -1.98964,1.85474 -3.69477,4.89159 -4.16581,5.75073 l -2.78473,-4.14837 2.59957,1.52469 c 1.23522,-1.58513 2.54948,-2.87167 3.76756,-3.77584 -0.8171,-0.76308 -1.86567,-1.23103 -2.97907,-1.3295 z"
       style="opacity:0.905192;fill:#005c87;fill-rule:evenodd;stroke-width:0.205064;stroke-linecap:round"
       id="path9-9" /><g
       id="g9"
       transform="translate(10.045298)"><rect
         style="opacity:0.905192;fill:#005c87;fill-opacity:1;fill-rule:evenodd;stroke-width:1.75774;stroke-linecap:round"
         id="rect9"
         width="30"
         height="60"
         x="62.337757"
         y="214.65157" /><rect
         style="opacity:0.905192;fill:#ff3c06;fill-opacity:1;fill-rule:evenodd;stroke-width:1.75774;stroke-linecap:round"
         id="rect9-4"
         width="30"
         height="60"
         x="97.571648"
         y="214.65157" /></g></g></svg>
